<mxfile host="65bd71144e">
    <diagram id="9a4IBa7f341X-YHtPTPj" name="Page-1">
        <mxGraphModel dx="544" dy="571" grid="1" gridSize="10" guides="1" tooltips="1" connect="1" arrows="1" fold="1" page="1" pageScale="1" pageWidth="850" pageHeight="1100" math="0" shadow="0">
            <root>
                <mxCell id="0"/>
                <mxCell id="1" parent="0"/>
                <mxCell id="16" value="ввод" style="whiteSpace=wrap;html=1;rounded=0;" vertex="1" parent="1">
                    <mxGeometry x="260" y="10" width="60" height="30" as="geometry"/>
                </mxCell>
                <mxCell id="20" value="запрос" style="shape=ext;double=1;rounded=1;whiteSpace=wrap;html=1;" vertex="1" parent="1">
                    <mxGeometry x="220" y="70" width="140" height="40" as="geometry"/>
                </mxCell>
                <mxCell id="22" value="вывод" style="shape=ext;double=1;rounded=1;whiteSpace=wrap;html=1;" vertex="1" parent="1">
                    <mxGeometry x="220" y="140" width="140" height="40" as="geometry"/>
                </mxCell>
            </root>
        </mxGraphModel>
    </diagram>
</mxfile>